# xmcd
#
# Track frame offsets:
#	150
#	15267
#	31027
#	46774
#	62756
#	80108
#	96067
#	114502
#	130475
#	146241
#	168593
#	185519
#
# Disc length: 2732 seconds
#
# Revision: 0
# Processed by: cddbd v1.5.2PL0 Copyright (c) Steve Scherf et al.
# Submitted via: dBpowerAMP V4.0
#
DISCID=9d0aaa0c
DTITLE=Cupid - Time For A Change
DYEAR=2007
DGENRE=R&B
TTITLE0=Work
TTITLE1=Closer
TTITLE2=Do Yo Dance ft. Cristal
TTITLE3=The Let Out ft. Tay-Dizm
TTITLE4=Cupid Shuffle
TTITLE5=369 ft. B.O.B
TTITLE6=Spin The Bottle ft. Shorty Da Kid
TTITLE7=Someone Like You
TTITLE8=Say Yes
TTITLE9=Don't Love Her To Death
TTITLE10=Cupid Shot You
TTITLE11=I Love Me ft. Foxx
EXTD=
EXTT0=
EXTT1=
EXTT2=
EXTT3=
EXTT4=
EXTT5=
EXTT6=
EXTT7=
EXTT8=
EXTT9=
EXTT10=
EXTT11=
PLAYORDER=
